<?xml version="1.0" encoding="UTF-8"?>
<svg version="1.1" xmlns="http://www.w3.org/2000/svg" width="1320" height="1000">
<path d="M0 0 C435.6 0 871.2 0 1320 0 C1320 330 1320 660 1320 1000 C884.4 1000 448.8 1000 0 1000 C0 670 0 340 0 0 Z " fill="#040814" transform="translate(0,0)"/>
<path d="M0 0 C53.46 0 106.92 0 162 0 C162 15.20950704 162 15.20950704 159.140625 21.30078125 C157.72213383 24.65755316 156.87053588 28.09788096 156 31.625 C154.25728589 38.34495984 152.64237317 44.03733918 147.9375 49.3125 C137.42694763 55.35047689 121.80121213 56.71986506 110.09765625 53.7109375 C101.66385414 50.85255392 95.7586913 45.01839451 91.48828125 37.25 C90.22946129 34.5282271 89.08242359 31.79626095 88 29 C87.52046875 27.77410156 87.52046875 27.77410156 87.03125 26.5234375 C86.33181749 24.69066529 85.66199722 22.84662381 85 21 C82.69 20.67 80.38 20.34 78 20 C77.78085937 20.51046875 77.56171875 21.0209375 77.3359375 21.546875 C76.24746118 24.04240608 75.1287243 26.52239774 74 29 C73.55269531 29.98613281 73.10539062 30.97226562 72.64453125 31.98828125 C68.57331413 40.57822193 64.19654113 48.31700136 55.1640625 52.2578125 C43.09485208 56.39707239 31.12629391 55.57518896 19 52 C7.87614542 45.45117375 6.51465447 34.70725998 3.375 22.9375 C3.15585938 22.08027344 2.93671875 21.22304688 2.7109375 20.33984375 C1.96558683 17.65138499 1.96558683 17.65138499 0 14 C0 9.38 0 4.76 0 0 Z " fill="#9B5BDD" transform="translate(198,474)"/>
<path d="M0 0 C2.46706086 2.87823767 2.66786331 4.38999403 2.875 8.1875 C2.936875 8.99445313 2.99875 9.80140625 3.0625 10.6328125 C3.44579292 19.04130098 1.46094233 26.04999227 -3 33.1875 C-9.53754756 39.34048594 -17.64244103 39.36686959 -26.1875 39.375 C-26.86876953 39.38724609 -27.55003906 39.39949219 -28.25195312 39.41210938 C-36.00815655 39.43446155 -40.68960773 37.31654876 -46.29296875 32.1953125 C-52.76828634 25.09869578 -53.92739018 16.23269534 -53.64453125 6.96484375 C-53.125 3.1875 -53.125 3.1875 -51.76171875 1.12890625 C-49.58881845 -0.31519519 -47.62423017 -1.06390064 -45.125 -1.8125 C-44.28839844 -2.121875 -43.45179688 -2.43125 -42.58984375 -2.75 C-29.51420629 -6.86946947 -12.04101065 -6.98378618 0 0 Z " fill="#050816" transform="translate(346.125,484.8125)"/>
<path d="M0 0 C2.84772989 2.0890358 4.12987302 3.51326226 4.92358398 6.97509766 C4.49271974 17.78587336 2.77969651 25.88198283 -4.76782227 33.95947266 C-12.98768594 40.37096632 -22.76569194 39.77375434 -32.76782227 38.95947266 C-38.4281882 37.8389251 -42.42246833 36.13665735 -46.76782227 32.33447266 C-51.89054879 23.68987165 -53.20723453 13.87668314 -51.76782227 3.95947266 C-49.5913826 0.48957871 -47.73734103 -1.52171333 -43.83032227 -2.79052734 C-43.18192383 -3.01224609 -42.53352539 -3.23396484 -41.86547852 -3.46240234 C-29.33548863 -6.91573289 -11.49674778 -6.76690223 0 0 Z " fill="#050815" transform="translate(260.767822265625,485.04052734375)"/>
<path d="M0 0 C3.96 0 7.92 0 12 0 C15.08220688 3.4066497 16.81181982 6.05116224 19 10 C20.40994376 12.2774018 21.8506266 14.53255247 23.30249023 16.78344727 C24.30313843 18.33513956 25.29242836 19.89422007 26.26977539 21.46069336 C26.95027954 22.53589233 26.95027954 22.53589233 27.64453125 23.6328125 C28.05034424 24.28137207 28.45615723 24.92993164 28.87426758 25.59814453 C29.24575928 26.06075684 29.61725098 26.52336914 30 27 C30.66 27 31.32 27 32 27 C33.56908291 24.98008368 33.56908291 24.98008368 35.15234375 22.36328125 C35.76400391 21.39326172 36.37566406 20.42324219 37.00585938 19.42382812 C37.64330078 18.39708984 38.28074219 17.37035156 38.9375 16.3125 C39.57107422 15.30509766 40.20464844 14.29769531 40.85742188 13.25976562 C44.30654777 7.80181732 44.30654777 7.80181732 47.50927734 2.19921875 C48.00121582 1.47347656 48.4931543 0.74773437 49 0 C53.34951662 -0.67707295 57.61474794 -0.21709169 62 0 C56.35149027 10.23879496 50.16779512 20.00000375 43.625 29.6875 C42.71440337 31.04332413 41.80424524 32.39944287 40.89453125 33.75585938 C39.24437881 36.21495139 37.59189948 38.67243615 35.93603516 41.12768555 C34.61895377 43.08171612 33.30713296 45.03930056 32 47 C27.97022683 45.65674228 27.26942511 43.76519547 24.98828125 40.21484375 C24.30548096 39.16159912 23.62268066 38.10835449 22.91918945 37.02319336 C22.05898193 35.67491455 21.19877441 34.32663574 20.3125 32.9375 C16.1978125 26.5334375 16.1978125 26.5334375 12 20 C11.67 33.86 11.34 47.72 11 62 C7.37 62 3.74 62 0 62 C0 41.54 0 21.08 0 0 Z " fill="#AD65F6" transform="translate(668,469)"/>
<path d="M0 0 C3.63 0 7.26 0 11 0 C11 17.16 11 34.32 11 52 C21.89 52 32.78 52 44 52 C44 55.3 44 58.6 44 62 C37.8944529 62.02464513 31.78893449 62.04283371 25.68334961 62.05493164 C23.60456844 62.05997288 21.52579084 62.06680574 19.44702148 62.07543945 C16.46597414 62.08751422 13.48497351 62.09323024 10.50390625 62.09765625 C9.10078941 62.10539818 9.10078941 62.10539818 7.66932678 62.11329651 C6.37810158 62.11340981 6.37810158 62.11340981 5.06079102 62.11352539 C4.29912125 62.115746 3.53745148 62.11796661 2.75270081 62.12025452 C1 62 1 62 0 61 C-0.09391296 59.09756238 -0.11743658 57.19161541 -0.11352539 55.28686523 C-0.11344986 54.0656749 -0.11337433 52.84448456 -0.11329651 51.58628845 C-0.10818911 50.24372314 -0.10297311 48.90115825 -0.09765625 47.55859375 C-0.09579199 46.19238842 -0.09436813 44.82618243 -0.09336853 43.4599762 C-0.08954394 39.85798305 -0.07971417 36.25603 -0.06866455 32.65405273 C-0.05844916 28.98096255 -0.05387064 25.30786591 -0.04882812 21.63476562 C-0.03809184 14.42315877 -0.02101614 7.211585 0 0 Z " fill="#AB64F4" transform="translate(1009,469)"/>
<path d="M0 0 C8.07230956 1.28131898 14.45959252 3.77117995 19.828125 10.18359375 C26.21935224 19.38261743 27.33695736 29.05068912 26 40 C24.15527436 46.15924926 20.94725764 50.8772853 16 55 C15.48695313 55.44085937 14.97390625 55.88171875 14.4453125 56.3359375 C9.87408753 59.98027815 5.73611062 61.02927359 0 62 C0 58.7 0 55.4 0 52 C1.381875 51.360625 2.76375 50.72125 4.1875 50.0625 C9.47935972 47.05765852 12.26411516 43.87014196 14 38 C14.85304511 30.61246371 14.932025 24.48647279 11 18 C9.38324185 16.15591409 9.38324185 16.15591409 7.5625 14.75 C6.98628906 14.27046875 6.41007813 13.7909375 5.81640625 13.296875 C3.72609737 11.73324735 3.72609737 11.73324735 0 10 C0 6.7 0 3.4 0 0 Z " fill="#AB64F4" transform="translate(969,469)"/>
<path d="M0 0 C0 3.3 0 6.6 0 10 C-2.24609375 11.20442708 -4.4921875 12.40885417 -6.73828125 13.61328125 C-11.67783352 16.64184957 -13.62944929 20.41661555 -15 26 C-15.94632178 32.90916652 -15.23819901 38.18851573 -11.49609375 44.125 C-8.37349978 48.03843369 -4.3933402 49.8033299 0 52 C0 55.3 0 58.6 0 62 C-8.07230956 60.71868102 -14.45959252 58.22882005 -19.828125 51.81640625 C-25.56391146 43.56077185 -28.09859256 34.39934401 -26.6015625 24.31640625 C-24.15169588 15.07896798 -19.42905283 8.13990806 -11.25 3.15234375 C-7.64445049 1.30575155 -4.10580112 0 0 0 Z " fill="#AD65F5" transform="translate(894,469)"/>
<path d="M0 0 C0.48191884 3.44705838 0.69580981 6.57366382 0 10 C-1.84948807 11.80545264 -3.65710886 12.76589031 -5.9609375 13.921875 C-9.97944809 16.04660474 -12.30788906 19.891612 -14 24 C-14.8616968 31.57491602 -14.80652648 38.78069257 -10 45 C-7.3908613 47.32277416 -7.3908613 47.32277416 -5 49 C-5 49.66 -5 50.32 -5 51 C-3.35 51.33 -1.7 51.66 0 52 C0 55.3 0 58.6 0 62 C-9.98040634 60.18538067 -16.05247427 56.2804535 -22 48 C-26.9936513 39.69677336 -27.63952492 29.65511297 -25.33984375 20.3203125 C-21.70041846 11.21387174 -14.91853976 4.84107165 -6 1 C-3.87962681 0.37817835 -2.2085227 0 0 0 Z " fill="#AD65F6" transform="translate(960,469)"/>
<path d="M0 0 C1.45880109 0.14107747 2.91703551 0.28802415 4.375 0.4375 C5.59316406 0.55931641 5.59316406 0.55931641 6.8359375 0.68359375 C9 1 9 1 11 2 C11 2.66 11 3.32 11 4 C11.5878125 4.09410156 12.175625 4.18820312 12.78125 4.28515625 C17.72973689 5.87947509 20.78910325 10.9559498 23.33984375 15.26171875 C27.28011608 23.74522324 27.5679329 33.56642257 24.4375 42.375 C20.24821912 51.26444967 14.17685734 56.56236694 5 60 C3.34151064 60.37188968 1.67589806 60.71670762 0 61 C-0.48191884 57.55294162 -0.69580981 54.42633618 0 51 C1.84865187 49.19536365 3.66139952 48.23226986 5.9609375 47.0703125 C9.73792247 45.08775717 11.46373265 42.12616143 13.25 38.375 C14.87284423 31.07220097 15.02772472 24.24721871 11.203125 17.6484375 C8.75643431 14.2961535 5.97084388 12.40991186 2.1875 10.8125 C0 9 0 9 -0.3125 6.8125 C-0.3125 4.52097397 -0.21516439 2.28074256 0 0 Z " fill="#AE65F7" transform="translate(903,470)"/>
<path d="M0 0 C4.47619183 -0.61545527 8.54210409 -0.83309367 13 0 C16.41915527 2.80358809 18.21215904 6.24525226 20.25 10.125 C21.41192771 12.17569021 22.57598722 14.22517403 23.7421875 16.2734375 C24.29229492 17.26956055 24.84240234 18.26568359 25.40917969 19.29199219 C26.77131666 21.61071891 28.16367083 23.60759801 29.8828125 25.6640625 C38.63092856 36.49636922 36.80872521 48.72093167 36 62 C32.04 62 28.08 62 24 62 C24.10183594 60.38996094 24.20367188 58.77992188 24.30859375 57.12109375 C24.85568301 39.50938978 20.48527307 29.22851763 9.83496094 15.40234375 C7.41667628 12.23630849 5.24116461 8.95985125 3.0625 5.625 C2.45535156 4.73039062 1.84820313 3.83578125 1.22265625 2.9140625 C0 1 0 1 0 0 Z " fill="#AE66F8" transform="translate(735,469)"/>
<path d="M0 0 C3.96 0 7.92 0 12 0 C14.8718673 7.78723206 17.74100985 15.57545121 20.60533142 23.36546135 C21.93537124 26.98239285 23.2666135 30.59887233 24.60058594 34.21435547 C25.88721024 37.70164543 27.1706991 41.19007434 28.45199585 44.6793251 C28.94208619 46.01223164 29.43331669 47.34471951 29.9256897 48.67678452 C30.61360727 50.53846601 31.29714607 52.40176378 31.98046875 54.26513672 C32.37129639 55.32658905 32.76212402 56.38804138 33.16479492 57.48165894 C34 60 34 60 34 62 C30.04 62 26.08 62 22 62 C16.10448298 46.66253308 10.3201815 31.29392745 4.8125 15.8125 C4.4470961 14.79021805 4.4470961 14.79021805 4.0743103 13.74728394 C3.38574893 11.81846581 2.70177009 9.88809346 2.01953125 7.95703125 C1.62870361 6.85335205 1.23787598 5.74967285 0.83520508 4.61254883 C0 2 0 2 0 0 Z " fill="#B066F9" transform="translate(495,469)"/>
<path d="M0 0 C0.97646484 0.00322266 1.95292969 0.00644531 2.95898438 0.00976562 C3.96638672 0.01814453 4.97378906 0.02652344 6.01171875 0.03515625 C7.03845703 0.03966797 8.06519531 0.04417969 9.12304688 0.04882812 C11.64846263 0.06057424 14.17384827 0.07850854 16.69921875 0.09765625 C16.69921875 3.39765625 16.69921875 6.69765625 16.69921875 10.09765625 C15.22710938 10.11183594 13.755 10.12601562 12.23828125 10.140625 C-4.27803702 10.17025273 -4.27803702 10.17025273 -17.80078125 18.66015625 C-19.97663833 23.6464954 -20.63986172 28.72333693 -21.30078125 34.09765625 C-24.93078125 34.09765625 -28.56078125 34.09765625 -32.30078125 34.09765625 C-33.76882882 26.75741838 -31.98177985 20.33958212 -28.55078125 13.72265625 C-20.94302596 4.84694174 -11.84256813 -0.06925478 0 0 Z " fill="#AE65F7" transform="translate(574.30078125,468.90234375)"/>
<path d="M0 0 C1.01320313 0.00902344 2.02640625 0.01804687 3.0703125 0.02734375 C5.54697872 0.05070853 8.02352171 0.08657189 10.5 0.125 C10.5 3.425 10.5 6.725 10.5 10.125 C8.3653125 10.18107422 8.3653125 10.18107422 6.1875 10.23828125 C4.29164199 10.3039793 2.3958098 10.37042529 0.5 10.4375 C-0.43457031 10.46005859 -1.36914062 10.48261719 -2.33203125 10.50585938 C-9.67459834 10.7882658 -15.84737833 11.53132548 -21.3125 16.875 C-25.06609857 22.45177502 -26.81833143 27.44464806 -27.5 34.125 C-31.13 34.125 -34.76 34.125 -38.5 34.125 C-39.02284955 24.97513286 -37.40363704 18.56585665 -32.375 10.875 C-22.78186112 1.69895412 -12.82248917 -0.21875638 0 0 Z " fill="#AF66F8" transform="translate(1111.5,468.875)"/>
<path d="M0 0 C1.81242052 -0.02687279 3.62495233 -0.04633715 5.4375 -0.0625 C6.44683594 -0.07410156 7.45617187 -0.08570313 8.49609375 -0.09765625 C11 0 11 0 12 1 C12.23600746 9.34454955 9.72423512 16.75648155 4.20703125 23.04296875 C-2.60630509 29.42112193 -10.81845898 33.12102139 -20.16796875 33.1328125 C-21.63073242 33.13474609 -21.63073242 33.13474609 -23.12304688 33.13671875 C-24.13431641 33.13285156 -25.14558594 33.12898437 -26.1875 33.125 C-27.21037109 33.12886719 -28.23324219 33.13273438 -29.28710938 33.13671875 C-30.25841797 33.13542969 -31.22972656 33.13414062 -32.23046875 33.1328125 C-33.56694458 33.13112061 -33.56694458 33.13112061 -34.93041992 33.12939453 C-37 33 -37 33 -38 32 C-38.07179964 30.48071962 -38.08392007 28.95832518 -38.0625 27.4375 C-38.05347656 26.61121094 -38.04445313 25.78492188 -38.03515625 24.93359375 C-38.02355469 24.29550781 -38.01195312 23.65742187 -38 23 C-37.38592285 22.99589111 -36.7718457 22.99178223 -36.13916016 22.98754883 C-19.96286727 23.59884007 -19.96286727 23.59884007 -6 17 C-2.24911345 11.77175955 -0.41618676 6.38153037 0 0 Z " fill="#AB64F4" transform="translate(579,498)"/>
<path d="M0 0 C3.96 0 7.92 0 12 0 C12.56042341 8.68656282 10.64036118 14.96180054 5.875 22.25 C-3.71813888 31.42604588 -13.67751083 33.34375638 -26.5 33.125 C-27.51320313 33.11597656 -28.52640625 33.10695313 -29.5703125 33.09765625 C-32.04697872 33.07429147 -34.52352171 33.03842811 -37 33 C-37 29.7 -37 26.4 -37 23 C-34.8653125 22.94392578 -34.8653125 22.94392578 -32.6875 22.88671875 C-30.79164199 22.8210207 -28.8958098 22.75457471 -27 22.6875 C-26.06542969 22.66494141 -25.13085938 22.64238281 -24.16796875 22.61914062 C-16.87264322 22.33855118 -10.77908102 21.5320516 -5.1875 16.4375 C-1.74560609 11.80954806 0 5.72133502 0 0 Z " fill="#AD65F6" transform="translate(1110,498)"/>
<path d="M0 0 C16.5 0 33 0 50 0 C50 3.3 50 6.6 50 10 C33.5 10 17 10 0 10 C0 6.7 0 3.4 0 0 Z " fill="#B368FD" transform="translate(807,469)"/>
<path d="M0 0 C0.66 0 1.32 0 2 0 C5.64118878 8.36066952 7.13236084 14.1339652 3.98046875 22.8046875 C2.71433999 25.89966891 1.36651182 28.94812359 0 32 C-0.9231441 34.18477436 -1.84002378 36.3722084 -2.75 38.5625 C-3.15734375 39.53316406 -3.5646875 40.50382813 -3.984375 41.50390625 C-4.71980338 43.31136292 -5.38292995 45.14878984 -6 47 C-9.96 47 -13.92 47 -18 47 C-17.28996257 43.44981287 -16.65248105 40.82941649 -15.32592773 37.5769043 C-14.98565048 36.73641037 -14.64537323 35.89591644 -14.29478455 35.029953 C-13.92809158 34.1370607 -13.56139862 33.2441684 -13.18359375 32.32421875 C-12.80767593 31.3990596 -12.43175812 30.47390045 -12.04444885 29.52070618 C-10.84626105 26.5746031 -9.64197011 23.63103946 -8.4375 20.6875 C-7.62264282 18.68701349 -6.80818503 16.68636425 -5.99414062 14.68554688 C-4.00071937 9.78846884 -2.0022853 4.89345994 0 0 Z " fill="#AA63F2" transform="translate(488,484)"/>
<path d="M0 0 C15.51 0 31.02 0 47 0 C47 3.3 47 6.6 47 10 C31.49 10 15.98 10 0 10 C0 6.7 0 3.4 0 0 Z " fill="#B066FA" transform="translate(609,469)"/>
<path d="M0 0 C15.51 0 31.02 0 47 0 C47 3.3 47 6.6 47 10 C40.46720661 10.02464347 33.93444002 10.04283291 27.40161133 10.05493164 C25.17732268 10.05997317 22.95303737 10.06680623 20.72875977 10.07543945 C17.53921691 10.08751298 14.34971771 10.09322996 11.16015625 10.09765625 C9.65860741 10.10539818 9.65860741 10.10539818 8.12672424 10.11329651 C7.20584518 10.11337204 6.28496613 10.11344757 5.33618164 10.11352539 C4.11373497 10.11685631 4.11373497 10.11685631 2.86659241 10.12025452 C1 10 1 10 0 9 C0 6.03 0 3.06 0 0 Z " fill="#AC64F4" transform="translate(609,521)"/>
<path d="M0 0 C3.63 0 7.26 0 11 0 C11 13.86 11 27.72 11 42 C7.37 42 3.74 42 0 42 C0 28.14 0 14.28 0 0 Z " fill="#AD65F6" transform="translate(826,489)"/>
<path d="M0 0 C15.18 0 30.36 0 46 0 C46 3.3 46 6.6 46 10 C30.82 10 15.64 10 0 10 C0 6.7 0 3.4 0 0 Z " fill="#AE66F7" transform="translate(410,521)"/>
<path d="M0 0 C15.18 0 30.36 0 46 0 C46 3.3 46 6.6 46 10 C30.82 10 15.64 10 0 10 C0 6.7 0 3.4 0 0 Z " fill="#B368FD" transform="translate(410,469)"/>
<path d="M0 0 C0 14.85 0 29.7 0 45 C-3.63 45 -7.26 45 -11 45 C-12.93019629 13.08940097 -12.93019629 13.08940097 -4.64501953 3.40576172 C-1.41331718 0 -1.41331718 0 0 0 Z " fill="#AC64F4" transform="translate(730,486)"/>
<path d="M0 0 C13.86 0 27.72 0 42 0 C42 2.97 42 5.94 42 9 C41 10 41 10 37.12280273 10.11352539 C35.39305833 10.11336621 33.66330919 10.10766849 31.93359375 10.09765625 C31.02497086 10.0962413 30.11634796 10.09482635 29.18019104 10.09336853 C26.26592779 10.08775193 23.35174019 10.07519665 20.4375 10.0625 C18.46679798 10.05748714 16.49609476 10.05292386 14.52539062 10.04882812 C9.68356441 10.03777711 4.84179505 10.02050138 0 10 C0 6.7 0 3.4 0 0 Z " fill="#A963F1" transform="translate(410,495)"/>
<path d="M0 0 C13.53 0 27.06 0 41 0 C41 3.3 41 6.6 41 10 C27.47 10 13.94 10 0 10 C0 6.7 0 3.4 0 0 Z " fill="#AB64F3" transform="translate(610,495)"/>
<path d="M0 0 C0.99773438 0.02320313 1.99546875 0.04640625 3.0234375 0.0703125 C4.52777344 0.09738281 4.52777344 0.09738281 6.0625 0.125 C6.83335937 0.14820313 7.60421875 0.17140625 8.3984375 0.1953125 C7.7384375 1.8453125 7.0784375 3.4953125 6.3984375 5.1953125 C5.7384375 5.1953125 5.0784375 5.1953125 4.3984375 5.1953125 C4.294104 5.75702148 4.18977051 6.31873047 4.08227539 6.89746094 C3.26983196 9.62745651 2.02614978 11.58440846 0.45703125 13.9609375 C-0.12626953 14.85039062 -0.70957031 15.73984375 -1.31054688 16.65625 C-2.22803711 18.03683594 -2.22803711 18.03683594 -3.1640625 19.4453125 C-3.77958984 20.38117188 -4.39511719 21.31703125 -5.02929688 22.28125 C-6.54837671 24.58930928 -8.07260375 26.89379051 -9.6015625 29.1953125 C-16.12150154 23.19010549 -16.12150154 23.19010549 -16.6015625 19.1953125 C-15.06186616 16.01829989 -12.98806966 13.30663688 -10.8515625 10.5078125 C-10.28695312 9.73630859 -9.72234375 8.96480469 -9.140625 8.16992188 C-3.30111004 0.24783108 -3.30111004 0.24783108 0 0 Z " fill="#AB64F3" transform="translate(786.6015625,468.8046875)"/>
</svg>
